<svg width="16" height="16" viewBox="0 0 16 16" fill="none" xmlns="http://www.w3.org/2000/svg">
<path fill-rule="evenodd" clip-rule="evenodd" d="M15.2071 2.20711C15.5976 1.81658 15.5976 1.18342 15.2071 0.79289C14.8166 0.40237 14.1834 0.40237 13.7929 0.79289L8 6.5858L2.20711 0.79289C1.81658 0.40237 1.18342 0.40237 0.79289 0.79289C0.40237 1.18342 0.40237 1.81658 0.79289 2.20711L6.5858 8L0.79289 13.7929C0.40237 14.1834 0.40237 14.8166 0.79289 15.2071C1.18342 15.5976 1.81658 15.5976 2.20711 15.2071L8 9.4142L13.7929 15.2071C14.1834 15.5976 14.8166 15.5976 15.2071 15.2071C15.5976 14.8166 15.5976 14.1834 15.2071 13.7929L9.4142 8L15.2071 2.20711Z" fill="#011E2A" stroke="#011E2A" stroke-width="0.3"/>
</svg>
